<svg width="495" height="655" viewBox="0 0 495 655" fill="none" xmlns="http://www.w3.org/2000/svg">
<path d="M358.469 307.53C373.018 307.53 383.667 297.552 406.165 275.719C428.063 254.487 479.659 246.534 479.659 261.164C479.659 263.865 477.034 267.767 474.334 267.767C435.263 272.418 430.613 290.95 411.415 343.993C404.14 365.225 400.166 377.154 395.516 398.987C373.693 502.372 365.744 568.695 308.074 614.46C273.651 642.295 234.58 654.224 187.484 654.224C76.8684 654.224 0 564.718 0 453.38C0 369.201 42.4464 306.855 124.564 272.418C99.3665 243.233 87.4425 208.796 87.4425 167.007C87.4425 72.925 172.935 0 261.653 0C319.323 0 356.444 21.2323 390.866 54.3186C416.664 25.8088 441.862 9.90339 461.735 9.90339C480.934 9.90339 494.208 25.8088 494.208 54.3186C494.208 115.99 423.339 239.257 338.521 290.274C341.896 300.928 349.17 307.53 358.469 307.53ZM422.664 122.592C418.689 113.289 412.09 99.334 400.091 81.4779C384.267 110.063 363.719 159.054 346.47 218.7C341.821 235.281 336.571 253.812 337.171 282.997C434.588 216.074 483.633 93.482 483.633 44.4152C483.633 27.8345 471.709 17.9311 461.135 17.9311C440.587 17.9311 423.339 41.1141 404.14 73.6002C416.064 88.1552 423.339 104.736 429.338 119.966L422.664 122.592ZM309.423 230.029C309.423 187.639 330.647 124.618 384.267 60.3207C348.495 26.5591 312.723 7.95272 260.378 7.95272C235.18 7.95272 197.458 20.557 170.235 39.0884C125.164 70.224 98.0166 127.244 98.0166 176.986C98.0166 216.749 111.29 243.233 133.114 269.117C147.662 264.466 165.586 259.814 189.434 259.814C232.48 259.814 271.627 275.719 294.8 301.603C307.399 297.627 315.948 293.651 321.947 291.025C310.698 268.442 309.423 249.911 309.423 230.029ZM192.808 267.767C170.31 267.767 153.737 273.094 141.138 277.07C169.635 298.977 195.433 311.507 235.855 311.507C252.428 311.507 269.677 309.556 285.575 304.229C262.402 281.046 225.956 267.767 192.808 267.767ZM330.572 493.144C366.344 385.782 388.917 308.881 428.663 280.371C435.263 275.119 445.912 267.767 452.511 263.115C432.638 266.416 421.989 271.743 406.765 285.623C387.567 303.479 377.593 315.483 357.719 315.483C343.77 315.483 333.871 309.556 325.922 298.227C315.948 303.479 306.724 306.855 301.399 308.806C323.222 333.339 334.546 361.849 334.546 395.01C334.546 487.142 278.226 550.764 196.708 550.764C144.363 550.764 98.0166 506.348 98.0166 444.752C98.0166 432.148 100.641 421.494 103.941 412.866L110.54 415.567C107.916 423.52 105.891 433.498 105.891 442.051C105.891 503.722 148.937 540.785 195.958 540.785C256.253 540.785 323.822 484.441 323.822 389.683C323.822 362.524 311.223 331.388 291.35 311.507C269.527 316.833 248.904 319.459 226.406 319.459C192.583 319.459 161.461 306.18 131.014 280.971C53.6954 312.182 10.5741 381.806 10.5741 450.679C10.5741 571.921 92.0921 646.196 173.535 646.196C245.154 646.271 295.475 599.83 330.572 493.144Z" fill="#112349"/>
</svg>
