<svg width="16" height="12" viewBox="0 0 16 12" fill="none" xmlns="http://www.w3.org/2000/svg">
<path d="M14.125 0.000488281H2.125C1.29775 0.000488281 0.625 0.673238 0.625 1.50049V10.5005C0.625 11.3277 1.29775 12.0005 2.125 12.0005H14.125C14.9523 12.0005 15.625 11.3277 15.625 10.5005V1.50049C15.625 0.673238 14.9523 0.000488281 14.125 0.000488281ZM14.125 1.50049V1.88374L8.125 6.55099L2.125 1.88449V1.50049H14.125ZM2.125 10.5005V3.78349L7.6645 8.09224C7.79583 8.1954 7.958 8.25147 8.125 8.25147C8.292 8.25147 8.45417 8.1954 8.5855 8.09224L14.125 3.78349L14.1265 10.5005H2.125Z" fill="#062841"/>
</svg>
