<svg width="17" height="13" viewBox="0 0 17 13" fill="none" xmlns="http://www.w3.org/2000/svg">
<path d="M0 9.125C0 8.57271 0.447715 8.125 1 8.125H3.875C4.42728 8.125 4.875 8.57271 4.875 9.125V12C4.875 12.5523 4.42728 13 3.875 13H1C0.447715 13 0 12.5523 0 12V9.125ZM11.375 4.0625C11.375 3.61377 11.0112 3.25 10.5625 3.25H7.3125C6.86377 3.25 6.5 3.61377 6.5 4.0625C6.5 4.51123 6.86377 4.875 7.3125 4.875H10.5625C11.0112 4.875 11.375 4.51123 11.375 4.0625ZM0 3.875C0 4.42728 0.447715 4.875 1 4.875H3.875C4.42728 4.875 4.875 4.42728 4.875 3.875V1C4.875 0.447715 4.42728 0 3.875 0H1C0.447715 0 0 0.447715 0 1V3.875ZM7.3125 0C6.86377 0 6.5 0.363769 6.5 0.8125C6.5 1.26123 6.86377 1.625 7.3125 1.625H15.4375C15.8862 1.625 16.25 1.26123 16.25 0.8125C16.25 0.363769 15.8862 0 15.4375 0H7.3125ZM6.5 12.1875C6.5 12.6362 6.86377 13 7.3125 13H10.5625C11.0112 13 11.375 12.6362 11.375 12.1875C11.375 11.7388 11.0112 11.375 10.5625 11.375H7.3125C6.86377 11.375 6.5 11.7388 6.5 12.1875ZM6.5 9.75H15.4375C15.8862 9.75 16.25 9.38623 16.25 8.9375C16.25 8.48877 15.8862 8.125 15.4375 8.125H6.5" fill="#062841"/>
</svg>
