<svg width="15" height="15" viewBox="0 0 15 15" fill="none" xmlns="http://www.w3.org/2000/svg">
<path d="M5.35531 6.85761H7.12528C7.31305 6.85761 7.49313 6.78302 7.6259 6.65025C7.75867 6.51747 7.83326 6.33739 7.83326 6.14962C7.83326 5.96185 7.75867 5.78178 7.6259 5.649C7.49313 5.51623 7.31305 5.44164 7.12528 5.44164H6.41729V5.08765C6.41729 4.89988 6.3427 4.7198 6.20993 4.58702C6.07715 4.45425 5.89707 4.37966 5.7093 4.37966C5.52154 4.37966 5.34146 4.45425 5.20868 4.58702C5.07591 4.7198 5.00132 4.89988 5.00132 5.08765V5.47704C4.57116 5.56438 4.18881 5.80845 3.92848 6.16185C3.66815 6.51525 3.54842 6.95277 3.59253 7.38948C3.63664 7.8262 3.84145 8.23094 4.16719 8.52514C4.49294 8.81934 4.91638 8.98201 5.35531 8.98157H6.0633C6.15718 8.98157 6.24722 9.01886 6.31361 9.08525C6.38 9.15164 6.41729 9.24168 6.41729 9.33556C6.41729 9.42945 6.38 9.51949 6.31361 9.58587C6.24722 9.65226 6.15718 9.68956 6.0633 9.68956H4.29333C4.10556 9.68956 3.92548 9.76415 3.79271 9.89692C3.65994 10.0297 3.58535 10.2098 3.58535 10.3975C3.58535 10.5853 3.65994 10.7654 3.79271 10.8982C3.92548 11.0309 4.10556 11.1055 4.29333 11.1055H5.00132V11.4595C5.00132 11.6473 5.07591 11.8274 5.20868 11.9601C5.34146 12.0929 5.52154 12.1675 5.7093 12.1675C5.89707 12.1675 6.07715 12.0929 6.20993 11.9601C6.3427 11.8274 6.41729 11.6473 6.41729 11.4595V11.0701C6.84745 10.9828 7.2298 10.7387 7.49013 10.3853C7.75046 10.0319 7.87019 9.59439 7.82608 9.15768C7.78197 8.72097 7.57716 8.31623 7.25142 8.02203C6.92567 7.72783 6.50223 7.56516 6.0633 7.5656H5.35531C5.26143 7.5656 5.17139 7.5283 5.105 7.46192C5.03861 7.39553 5.00132 7.30549 5.00132 7.2116C5.00132 7.11772 5.03861 7.02768 5.105 6.96129C5.17139 6.89491 5.26143 6.85761 5.35531 6.85761ZM13.4972 7.91959H11.3732V1.54771C11.3737 1.42296 11.3412 1.30029 11.279 1.19213C11.2169 1.08396 11.1272 0.994143 11.0192 0.931766C10.9116 0.869628 10.7895 0.836914 10.6652 0.836914C10.5409 0.836914 10.4188 0.869628 10.3112 0.931766L8.18726 2.1495L6.0633 0.931766C5.95567 0.869628 5.83358 0.836914 5.7093 0.836914C5.58503 0.836914 5.46294 0.869628 5.35531 0.931766L3.23135 2.1495L1.10739 0.931766C0.999767 0.869628 0.877679 0.836914 0.753402 0.836914C0.629124 0.836914 0.507036 0.869628 0.399409 0.931766C0.291367 0.994143 0.201726 1.08396 0.139562 1.19213C0.0773989 1.30029 0.0449205 1.42296 0.0454157 1.54771V12.8755C0.0454157 13.4388 0.269189 13.979 0.667509 14.3774C1.06583 14.7757 1.60607 14.9995 2.16937 14.9995H12.0812C12.6445 14.9995 13.1847 14.7757 13.583 14.3774C13.9814 13.979 14.2051 13.4388 14.2051 12.8755V8.62758C14.2051 8.43981 14.1305 8.25973 13.9978 8.12695C13.865 7.99418 13.6849 7.91959 13.4972 7.91959ZM2.16937 13.5835C1.9816 13.5835 1.80153 13.5089 1.66875 13.3761C1.53598 13.2433 1.46139 13.0633 1.46139 12.8755V2.77253L2.87736 3.57963C2.98663 3.63671 3.10808 3.66651 3.23135 3.66651C3.35463 3.66651 3.47608 3.63671 3.58535 3.57963L5.7093 2.3619L7.83326 3.57963C7.94253 3.63671 8.06398 3.66651 8.18726 3.66651C8.31053 3.66651 8.43198 3.63671 8.54125 3.57963L9.95722 2.77253V12.8755C9.95914 13.117 10.0022 13.3564 10.0847 13.5835H2.16937ZM12.7892 12.8755C12.7892 13.0633 12.7146 13.2433 12.5818 13.3761C12.449 13.5089 12.269 13.5835 12.0812 13.5835C11.8934 13.5835 11.7133 13.5089 11.5806 13.3761C11.4478 13.2433 11.3732 13.0633 11.3732 12.8755V9.33556H12.7892V12.8755Z" fill="#062841"/>
</svg>
