<svg width="15" height="15" viewBox="0 0 15 15" fill="none" xmlns="http://www.w3.org/2000/svg">
<path d="M11.002 14.8373C8.14416 14.8336 5.40441 13.6967 3.3836 11.6758C1.36279 9.65503 0.225872 6.91529 0.222168 4.05744C0.222168 3.20345 0.561412 2.38444 1.16527 1.78058C1.76913 1.17673 2.58814 0.837482 3.44212 0.837482C3.62296 0.836105 3.80349 0.852517 3.98111 0.886482C4.15283 0.911892 4.32163 0.954093 4.48511 1.01248C4.60008 1.05282 4.70253 1.12247 4.78233 1.21455C4.86213 1.30662 4.91651 1.41793 4.9401 1.53747L5.89908 5.73741C5.92493 5.85141 5.92182 5.97007 5.89003 6.08256C5.85824 6.19505 5.79878 6.29779 5.71709 6.3814C5.62609 6.4794 5.61909 6.4864 4.7581 6.93439C5.44759 8.44697 6.65731 9.66166 8.16705 10.3573C8.62205 9.48936 8.62904 9.48236 8.72704 9.39136C8.81065 9.30966 8.91339 9.25021 9.02588 9.21841C9.13837 9.18662 9.25703 9.18351 9.37103 9.20936L13.571 10.1683C13.6867 10.1952 13.7937 10.251 13.8818 10.3306C13.97 10.4102 14.0365 10.511 14.075 10.6233C14.134 10.7895 14.1785 10.9605 14.208 11.1343C14.2361 11.3103 14.2502 11.4882 14.25 11.6663C14.2371 12.5167 13.8883 13.3274 13.2798 13.9214C12.6712 14.5155 11.8524 14.8448 11.002 14.8373ZM3.44212 2.23746C2.96 2.23931 2.49815 2.43164 2.15724 2.77256C1.81633 3.11347 1.62399 3.57532 1.62215 4.05744C1.624 6.54456 2.61283 8.92929 4.37149 10.688C6.13016 12.4466 8.51488 13.4354 11.002 13.4373C11.4841 13.4355 11.946 13.2431 12.2869 12.9022C12.6278 12.5613 12.8201 12.0994 12.822 11.6173V11.3863L9.57403 10.6373L9.37103 11.0223C9.05604 11.6313 8.82504 12.0723 8.23705 11.8343C7.07708 11.4191 6.02417 10.7508 5.15481 9.87777C4.28545 9.00477 3.62147 7.94908 3.21112 6.7874C2.95913 6.2414 3.43512 5.98941 4.03711 5.67441L4.42211 5.48541L3.67312 2.23746H3.44212Z" fill="#062841"/>
</svg>
