<svg width="14" height="14" viewBox="0 0 14 14" fill="none" xmlns="http://www.w3.org/2000/svg">
<path d="M5.07499 6.17171H6.66338C6.83189 6.17171 6.99349 6.10478 7.11265 5.98565C7.2318 5.86653 7.29874 5.70495 7.29874 5.53648C7.29874 5.368 7.2318 5.20643 7.11265 5.0873C6.99349 4.96817 6.83189 4.90125 6.66338 4.90125H6.02802V4.58363C6.02802 4.41516 5.96108 4.25358 5.84193 4.13445C5.72278 4.01532 5.56117 3.9484 5.39267 3.9484C5.22416 3.9484 5.06255 4.01532 4.9434 4.13445C4.82425 4.25358 4.75731 4.41516 4.75731 4.58363V4.93301C4.37128 5.01138 4.02815 5.23036 3.79452 5.54744C3.5609 5.86453 3.45345 6.25709 3.49304 6.64893C3.53263 7.04076 3.71642 7.40391 4.00875 7.66788C4.30108 7.93185 4.68108 8.0778 5.07499 8.0774H5.71035C5.7946 8.0774 5.8754 8.11087 5.93498 8.17043C5.99455 8.23 6.02802 8.31078 6.02802 8.39502C6.02802 8.47926 5.99455 8.56004 5.93498 8.61961C5.8754 8.67917 5.7946 8.71264 5.71035 8.71264H4.12195C3.95344 8.71264 3.79184 8.77956 3.67269 8.89869C3.55353 9.01782 3.48659 9.17939 3.48659 9.34787C3.48659 9.51634 3.55353 9.67792 3.67269 9.79705C3.79184 9.91617 3.95344 9.9831 4.12195 9.9831H4.75731V10.3007C4.75731 10.4692 4.82425 10.6308 4.9434 10.7499C5.06255 10.869 5.22416 10.9359 5.39267 10.9359C5.56117 10.9359 5.72278 10.869 5.84193 10.7499C5.96108 10.6308 6.02802 10.4692 6.02802 10.3007V9.95134C6.41405 9.87297 6.75719 9.65399 6.99081 9.3369C7.22443 9.01982 7.33188 8.62725 7.29229 8.23542C7.25271 7.84359 7.06891 7.48043 6.77658 7.21647C6.48425 6.9525 6.10425 6.80655 5.71035 6.80694H5.07499C4.99073 6.80694 4.90993 6.77348 4.85035 6.71391C4.79078 6.65435 4.75731 6.57356 4.75731 6.48933C4.75731 6.40509 4.79078 6.3243 4.85035 6.26474C4.90993 6.20517 4.99073 6.17171 5.07499 6.17171ZM12.3816 7.12456H10.4755V1.40747C10.476 1.29554 10.4468 1.18547 10.391 1.08842C10.3353 0.991374 10.2548 0.910786 10.1579 0.854819C10.0613 0.799066 9.9517 0.769714 9.84017 0.769714C9.72864 0.769714 9.61908 0.799066 9.52249 0.854819L7.61642 1.94742L5.71035 0.854819C5.61376 0.799066 5.5042 0.769714 5.39267 0.769714C5.28114 0.769714 5.17157 0.799066 5.07499 0.854819L3.16891 1.94742L1.26284 0.854819C1.16625 0.799066 1.05669 0.769714 0.945162 0.769714C0.833633 0.769714 0.72407 0.799066 0.627483 0.854819C0.530525 0.910786 0.450079 0.991374 0.394293 1.08842C0.338506 1.18547 0.30936 1.29554 0.309804 1.40747V11.5712C0.309804 12.0766 0.510622 12.5613 0.86808 12.9187C1.22554 13.2761 1.71036 13.4769 2.21588 13.4769H11.1109C11.6164 13.4769 12.1012 13.2761 12.4587 12.9187C12.8161 12.5613 13.017 12.0766 13.017 11.5712V7.75979C13.017 7.59132 12.95 7.42974 12.8309 7.31061C12.7117 7.19148 12.5501 7.12456 12.3816 7.12456ZM2.21588 12.2064C2.04737 12.2064 1.88576 12.1395 1.76661 12.0204C1.64746 11.9012 1.58052 11.7397 1.58052 11.5712V2.50642L2.85124 3.23059C2.9493 3.28179 3.05828 3.30854 3.16891 3.30854C3.27954 3.30854 3.38853 3.28179 3.48659 3.23059L5.39267 2.13799L7.29874 3.23059C7.3968 3.28179 7.50579 3.30854 7.61642 3.30854C7.72705 3.30854 7.83604 3.28179 7.9341 3.23059L9.20481 2.50642V11.5712C9.20653 11.7879 9.24521 12.0027 9.31918 12.2064H2.21588ZM11.7462 11.5712C11.7462 11.7397 11.6793 11.9012 11.5602 12.0204C11.441 12.1395 11.2794 12.2064 11.1109 12.2064C10.9424 12.2064 10.7808 12.1395 10.6616 12.0204C10.5425 11.9012 10.4755 11.7397 10.4755 11.5712V8.39502H11.7462V11.5712Z" fill="#F7A814"/>
</svg>
