<svg width="273" height="308" viewBox="0 0 273 308" fill="none" xmlns="http://www.w3.org/2000/svg">
<path d="M0 0C0.531645 10.6318 0.797466 33.2245 1.06329 77.8781L78.6834 -8.6335e-06L0 0Z" fill="#6A6865"/>
<path d="M227.544 150.175L213.456 137.151L199.367 150.175L200.696 131.303L181.823 128.379L197.506 117.482L188.203 101.002L206.544 106.584L213.456 88.7758L220.367 106.584L238.709 101.002L229.139 117.482L244.823 128.114L225.949 131.303L227.544 150.175ZM193.253 199.347L180.228 190.044L167.468 199.347L172.519 184.196L159.494 174.628L175.443 174.628L180.494 159.477L185.544 174.628L201.494 174.628L188.468 183.931L193.253 199.347ZM152.317 270.58L138.228 257.556L124.139 270.58L125.469 251.709L106.595 248.785L122.279 237.887L112.709 221.408L131.051 226.99L137.962 209.181L144.874 226.99L163.215 221.408L154.177 237.887L169.861 248.519L150.988 251.443L152.317 270.58ZM78.418 163.73L64.3294 150.706L50.5066 163.73L51.8358 144.859L32.9624 141.935L48.6459 131.037L39.0763 114.558L57.418 120.14L64.3294 102.331L71.2408 120.14L89.5825 114.558L80.0129 131.037L95.6964 141.669L77.0889 144.593L78.418 163.73ZM122.81 56.0829L113.241 39.6036L131.582 45.1853L138.494 27.3769L145.405 45.1853L163.747 39.6035L154.177 56.0829L169.861 66.7147L150.988 69.6385L152.317 88.51L138.228 75.486L124.139 88.51L125.469 69.6385L106.595 66.7147L122.81 56.0829ZM108.722 -1.17833e-05L1.3295 107.381C10.6333 253.835 138.494 307.26 138.494 307.26C138.494 307.26 273 247.722 273 105.787L273 -2.98082e-05L108.722 -1.17833e-05Z" fill="#062841"/>
</svg>
