<svg width="13" height="13" viewBox="0 0 13 13" fill="none" xmlns="http://www.w3.org/2000/svg">
<path d="M9.81494 12.4767C7.44187 12.4736 5.16688 11.5277 3.48886 9.84631C1.81085 8.16497 0.866784 5.88545 0.863708 3.50767C0.863708 2.79714 1.14541 2.11572 1.64683 1.6133C2.14825 1.11088 2.82833 0.828619 3.53745 0.828619C3.68761 0.827473 3.83752 0.841128 3.98502 0.869387C4.1276 0.890528 4.26777 0.925641 4.40351 0.97422C4.49898 1.00778 4.58406 1.06573 4.65032 1.14234C4.71658 1.21895 4.76174 1.31156 4.78133 1.41102L5.57764 4.90544C5.5991 5.00029 5.59652 5.09902 5.57012 5.19261C5.54372 5.28621 5.49435 5.37169 5.42651 5.44125C5.35095 5.52279 5.34514 5.52861 4.6302 5.90135C5.20273 7.15984 6.20725 8.17048 7.46088 8.7493C7.8387 8.02712 7.84451 8.0213 7.92588 7.94558C7.99531 7.87761 8.08062 7.82814 8.17403 7.80169C8.26744 7.77524 8.36597 7.77265 8.46063 7.79416L11.9481 8.59205C12.0442 8.61439 12.133 8.66086 12.2063 8.72708C12.2795 8.79331 12.3347 8.87712 12.3666 8.97061C12.4157 9.10885 12.4526 9.25111 12.4771 9.39577C12.5005 9.54214 12.5121 9.69016 12.5119 9.83839C12.5012 10.5459 12.2116 11.2204 11.7063 11.7147C11.201 12.209 10.5211 12.4829 9.81494 12.4767ZM3.53745 1.99342C3.13712 1.99496 2.75361 2.15499 2.47053 2.43863C2.18745 2.72228 2.02774 3.10654 2.02621 3.50767C2.02775 5.577 2.84884 7.56113 4.30917 9.02437C5.76951 10.4876 7.74971 11.3103 9.81494 11.3119C10.2153 11.3103 10.5988 11.1503 10.8819 10.8667C11.1649 10.583 11.3247 10.1988 11.3262 9.79762V9.60543L8.62919 8.98226L8.46063 9.30258C8.19907 9.80927 8.00726 10.1762 7.51901 9.97817C6.55581 9.63272 5.68151 9.07663 4.95962 8.35028C4.23773 7.62394 3.68638 6.74559 3.34564 5.77904C3.13639 5.32477 3.53164 5.1151 4.03152 4.85302L4.3512 4.69578L3.72927 1.99342H3.53745Z" fill="#F7A814"/>
</svg>
