<svg width="15" height="13" viewBox="0 0 15 13" fill="none" xmlns="http://www.w3.org/2000/svg">
<path d="M13.005 0.828613H1.99209C1.23289 0.828613 0.615479 1.48164 0.615479 2.28464V11.0208C0.615479 11.8238 1.23289 12.4768 1.99209 12.4768H13.005C13.7642 12.4768 14.3816 11.8238 14.3816 11.0208V2.28464C14.3816 1.48164 13.7642 0.828613 13.005 0.828613ZM13.005 2.28464V2.65666L7.49852 7.18709L1.99209 2.65739V2.28464H13.005ZM1.99209 11.0208V4.50072L7.0759 8.68316C7.19643 8.7833 7.34526 8.83773 7.49852 8.83773C7.65179 8.83773 7.80061 8.7833 7.92114 8.68316L13.005 4.50072L13.0063 11.0208H1.99209Z" fill="#F7A814"/>
</svg>
